<?xml version="1.0" standalone="no"?>
<!DOCTYPE svg PUBLIC "-//W3C//DTD SVG 20010904//EN"
 "http://www.w3.org/TR/2001/REC-SVG-20010904/DTD/svg10.dtd">
<svg version="1.0" xmlns="http://www.w3.org/2000/svg"
 width="152.000000pt" height="152.000000pt" viewBox="0 0 152.000000 152.000000"
 preserveAspectRatio="xMidYMid meet">
<metadata>
Created by potrace 1.16, written by Peter Selinger 2001-2019
</metadata>
<g transform="translate(0.000000,152.000000) scale(0.013229,-0.013229)"
fill="#000000" stroke="none">
<path d="M3547 9003 c-313 -313 -575 -580 -583 -595 -12 -23 -14 -469 -14
-3223 0 -2938 1 -3200 16 -3231 33 -69 -208 -64 2794 -64 2992 0 2761 -5 2795
60 13 26 15 446 15 3775 0 3447 -1 3750 -16 3781 -33 69 153 64 -2256 64
l-2183 0 -568 -567z m4773 -3273 l0 -3600 -2560 0 -2560 0 0 3055 0 3055 500
0 c435 0 505 2 531 16 58 30 59 35 59 579 l0 495 2015 0 2015 0 0 -3600z
m-4270 3085 l0 -335 -342 0 -343 0 335 335 c184 184 338 335 342 335 5 0 8
-151 8 -335z"/>
<path d="M6465 8706 c-92 -29 -166 -78 -240 -157 -98 -106 -145 -226 -145
-374 0 -257 170 -475 420 -540 90 -24 242 -16 325 15 349 133 477 537 268 844
-73 107 -188 188 -314 221 -84 23 -230 19 -314 -9z m310 -248 c60 -31 114 -86
146 -148 20 -38 24 -60 24 -135 0 -78 -4 -97 -27 -141 -32 -60 -93 -118 -157
-147 -72 -33 -188 -31 -263 6 -65 32 -121 90 -151 156 -16 35 -22 66 -22 126
0 93 21 148 81 214 66 73 137 102 244 97 57 -2 87 -9 125 -28z"/>
<path d="M6200 7586 c-338 -125 -581 -447 -605 -804 -7 -102 8 -143 66 -174
32 -17 83 -18 979 -18 930 0 946 0 978 20 50 30 66 78 59 175 -11 151 -73 327
-158 453 -47 68 -155 178 -225 228 -81 58 -224 125 -276 131 -62 6 -102 -22
-134 -94 -30 -70 -64 -107 -124 -138 -139 -71 -297 -17 -367 125 -49 101 -105
128 -193 96z m69 -336 c205 -212 525 -211 733 1 l69 70 45 -26 c67 -39 168
-139 212 -208 43 -69 88 -176 94 -222 l3 -30 -787 -3 c-757 -2 -788 -1 -788
16 0 76 80 237 161 326 49 53 167 146 186 146 2 0 35 -31 72 -70z"/>
<path d="M3753 5743 c-34 -7 -81 -59 -89 -100 -9 -46 15 -97 58 -123 33 -20
54 -20 2039 -20 l2006 0 34 23 c77 52 78 151 2 203 -27 18 -81 19 -2028 20
-1100 1 -2010 -1 -2022 -3z"/>
<path d="M3723 4850 c-35 -21 -63 -66 -63 -100 0 -36 31 -90 61 -105 24 -13
299 -15 2047 -15 l2020 0 30 28 c54 51 55 126 1 178 l-30 29 -2017 3 c-1987 2
-2017 2 -2049 -18z"/>
<path d="M3714 3971 c-30 -18 -54 -64 -54 -103 0 -32 29 -78 63 -98 31 -20 66
-20 2037 -20 1971 0 2006 0 2037 20 58 35 78 102 48 160 -33 65 126 60 -2087
60 -1961 0 -2014 -1 -2044 -19z"/>
<path d="M3723 3100 c-35 -21 -63 -66 -63 -100 0 -36 31 -90 61 -105 24 -13
179 -15 1080 -15 l1051 0 34 34 c28 28 34 42 34 75 0 56 -22 95 -64 115 -31
14 -132 16 -1068 16 -1007 0 -1034 -1 -1065 -20z"/>
</g>
</svg>
